<svg width="71" height="68" viewBox="0 0 71 68" fill="none" xmlns="http://www.w3.org/2000/svg">
<path d="M33.6687 20.2601C25.4929 20.2601 19.134 25.3297 19.1339 36.6117C19.1339 43.8791 27.8683 50.2381 32.7603 50.2381C40.9362 50.2381 46.6345 46.6044 49.112 41.1538C53.6541 31.1612 45.4782 23.8938 40.0277 22.0769" stroke="black" stroke-width="5" stroke-linecap="round"/>
<path d="M14.3683 4.97783C16.3487 7.72732 18.4204 10.9161 20.6619 13.2441" stroke="black" stroke-width="5" stroke-linecap="round"/>
<path d="M55.698 26.1648C58.144 24.9418 60.807 24.8392 63.3944 24.1335C64.8345 23.7408 66.2312 23.4396 67.7346 23.4396" stroke="black" stroke-width="5" stroke-linecap="round"/>
<path d="M40.709 55.6887C42.1973 58.5164 43.4343 61.7699 43.4343 65" stroke="black" stroke-width="5" stroke-linecap="round"/>
<path d="M12.7265 63.102C11.5477 62.5277 18.727 54.7178 19.4979 53.7052" stroke="black" stroke-width="5" stroke-linecap="round"/>
<path d="M3 34.0179C3.51229 33.8691 3.94216 34.311 4.47152 34.2757C5.34022 34.2179 6.16033 34.4013 7.02569 34.4818C8.5536 34.6239 10.1178 34.9159 11.6487 34.8905" stroke="black" stroke-width="5" stroke-linecap="round"/>
<path d="M55.925 44.5604C56.8069 45.4749 57.4167 46.3813 58.5494 46.9703C59.6873 47.562 60.3564 48.7022 61.4765 49.3423C62.6352 50.0044 64.5541 51.8255 65.0093 52.9634" stroke="black" stroke-width="5" stroke-linecap="round"/>
<path d="M43.4343 3.01273C42.9767 2.65679 40.4614 9.87715 40.0277 10.9614" stroke="black" stroke-width="5" stroke-linecap="round"/>
</svg>
