<svg width="71" height="71" viewBox="0 0 71 71" fill="none" xmlns="http://www.w3.org/2000/svg">
<g clip-path="url(#clip0_43_21)">
<path d="M69.4223 10.6267C65.7651 7.64146 62.3906 4.3913 58.9335 1.21587C57.9941 0.35308 56.8486 0.372908 55.9633 0.844951C55.1913 1.25705 54.3625 2.46012 53.777 3.11228C48.6143 8.85001 43.3053 14.4538 37.3766 19.5232C36.7113 20.0924 35.6901 20.0151 35.117 19.3529C30.1073 13.566 25.7175 7.37363 21.4525 1.10423C20.8766 0.258062 20.0103 -0.0504822 19.1693 0.00671198C18.2946 0.0658889 17.4062 0.56081 17.0945 0.702956C16.913 0.784706 16.7351 0.889333 16.5625 1.02019C12.8467 3.83522 8.9773 6.4631 5.09679 9.08244C5.03868 9.12118 4.9856 9.16328 4.93573 9.20568C4.85001 9.27843 4.0888 9.65835 3.63917 10.41C3.15203 11.2239 3.10841 12.2737 3.93399 13.1695C10.2769 20.0468 16.2506 27.2011 22.568 34.0975C23.1598 34.743 23.0924 35.7131 22.4271 36.2823C15.1608 42.5013 9.20242 49.9178 1.39487 55.6265C0.936403 55.9619 0.672242 56.3429 0.561972 56.7333C0.350582 57.4839 0.754907 58.4937 0.984904 58.9011C1.10997 59.1234 1.28918 59.3394 1.53122 59.5439C5.12805 62.59 8.43815 65.8955 11.8298 69.1266C12.753 70.0065 13.9001 70.0048 14.7945 69.5464C15.5732 69.1468 16.4232 67.9596 17.0216 67.3197C22.2985 61.6668 27.7182 56.1509 33.7488 51.1788C34.4245 50.6212 35.4418 50.7163 36.0033 51.3902C40.8981 57.2592 45.1631 63.5233 49.3043 69.8615C49.8634 70.7165 50.7239 71.0395 51.5664 70.996C52.4416 70.9512 53.3385 70.4711 53.6544 70.3346C53.8363 70.255 54.0169 70.1541 54.1919 70.0263C57.9629 67.2722 61.8841 64.7103 65.816 62.1553C65.8741 62.1166 65.9283 62.0763 65.9803 62.0345C66.0661 61.9632 66.833 61.5962 67.2977 60.8542C67.8019 60.0488 67.8669 58.9985 67.0577 58.0884C60.7843 51.0314 54.8936 43.6978 48.6396 36.6276C48.0587 35.9715 48.1291 34.9849 48.7868 34.4061C56.0219 28.032 61.8708 20.4336 69.6358 14.5418C70.0882 14.1987 70.3452 13.8131 70.4466 13.4214C70.6434 12.668 70.2181 11.6653 69.9804 11.261C69.8513 11.0415 69.6686 10.8282 69.4223 10.6267ZM63.0025 13.6514C55.8439 19.8128 50.1004 27.2367 42.6748 33.1719C42.3526 33.4306 42.1333 33.7097 42.0025 33.9975C41.7571 34.5377 41.7261 35.5518 41.8917 36.1381C41.9823 36.4611 42.1582 36.7809 42.4353 37.0869C48.6536 43.9154 54.4283 51.0664 60.4576 58.0335C61.0315 58.6958 60.9037 59.6191 60.1725 60.0991C57.9831 61.5382 55.8076 62.994 53.6638 64.4889C52.945 64.9899 51.9747 64.8088 51.4874 64.0807C47.6366 58.32 43.6009 52.6788 39.0624 47.3487C38.4946 46.6819 37.7573 45.4334 37.034 44.9394C36.127 44.3205 34.8248 44.1494 33.7162 44.9873C26.6688 50.3111 20.5139 56.4272 14.5721 62.7454C13.9718 63.3843 12.9766 63.4093 12.3443 62.8035C10.8987 61.4164 9.44507 60.0362 7.95726 58.6865C7.30937 58.0987 7.33453 57.1886 8.00881 56.6295C15.2893 50.587 21.1784 43.2596 28.7208 37.4477C29.022 37.2162 29.2346 36.9646 29.374 36.7034C29.6342 36.2178 29.7039 35.2425 29.5238 34.6747C29.4239 34.3621 29.2445 34.0528 28.9689 33.7605C22.6155 27.0352 16.7007 19.9808 10.5347 13.1143C9.94915 12.4625 10.0596 11.5378 10.7828 11.0437C12.9425 9.56943 15.0875 8.07903 17.1994 6.54943C17.9092 6.03559 18.8832 6.19894 19.3834 6.91806C23.348 12.6148 27.4957 18.1899 32.1411 23.4448C32.7208 24.1015 33.4814 25.3349 34.2125 25.817C35.1309 26.4222 36.4383 26.5721 37.5303 25.7164C44.4704 20.2776 50.5021 14.0603 56.3169 7.64542C56.9055 6.99676 57.9008 6.95223 58.5443 7.54689C60.0173 8.91117 61.5005 10.2674 63.0147 11.5924C63.6756 12.1699 63.6678 13.0795 63.0025 13.6514Z" fill="black"/>
</g>
<defs>
<clipPath id="clip0_43_21">
<rect width="71" height="71" fill="white"/>
</clipPath>
</defs>
</svg>
