<svg width="135" height="198" viewBox="0 0 135 198" fill="none" xmlns="http://www.w3.org/2000/svg">
<path d="M133.693 35.441L133.711 35.0493C133.788 33.4232 133.255 31.8455 132.285 30.8296C131.431 29.9364 130.293 29.4816 128.904 29.4816H105.558L105.546 28.4356C105.527 27.0277 105.517 25.6218 105.517 24.2119C105.517 23.7449 105.457 23.2783 105.321 22.7469L105.282 22.593L105.29 22.4338C105.37 20.8057 104.841 19.2239 103.87 18.2015C103.016 17.3042 101.876 16.8486 100.483 16.8486C96.071 16.8486 91.6592 16.8299 87.2514 16.8103L86.2177 16.8062L86.1969 15.7737C86.1077 11.1819 85.8125 7.35797 85.2666 3.73965C84.9152 1.42217 82.4715 0.0366433 80.3063 0.0366433L80.0107 0.038679L79.7582 0.0122144L59.1289 0C57.5988 0 56.3346 0.573671 55.4727 1.66442C54.4377 2.97544 54.0587 4.91631 54.4886 6.733L54.5631 7.04406L54.4504 7.34698C54.2158 7.97765 54.0949 8.60385 54.0949 9.20968V16.3405L53.0021 16.3063C48.5145 16.1691 44.0261 16.0115 39.5373 15.7945L39.3191 15.7872C38.8912 15.7872 38.4727 15.847 37.9939 15.9744L37.8542 16.0115L37.7084 16.0095H37.7064C35.1955 16.0095 32.5678 17.5912 32.5316 21.0654C32.5128 22.8459 32.4448 24.6227 32.3369 26.3925L32.2771 27.3852L31.2824 27.3872C23.5698 27.4088 15.3173 27.5505 7.23058 28.425C6.95453 28.4539 6.71187 28.5223 6.46555 28.5883L6.12965 28.6388C3.59923 28.6388 1.06962 30.199 1.06962 33.6878V53.6946C1.06962 54.8163 1.35055 55.8077 1.9059 56.6347L2.08586 56.9026V57.2242C2.07731 102.219 1.91852 142.839 0.053377 184.304C0.0297624 184.809 0.0855421 185.312 0.216644 185.88L0.267537 186.095L0.22723 186.314C-0.0252017 187.699 0.197101 188.965 0.855459 189.883C1.44786 190.712 2.38226 191.226 3.62284 191.412C44.2945 197.445 84.4246 197.937 128.906 197.941L128.911 199V197.941C132.122 197.941 133.174 195.494 133.476 194.443L133.544 194.208L133.709 194.026C134.534 193.116 134.952 191.958 134.952 190.577V38.9526C134.952 37.6933 134.608 36.6164 133.933 35.75L133.693 35.441ZM64.1592 10.5183H76.006L76.0512 11.5264C76.1196 12.896 76.1591 14.2677 76.1692 15.6398L76.1754 16.715L72.4789 16.678C70.0514 16.654 67.6253 16.6304 65.1991 16.5888L64.1592 16.5693V10.5183ZM40.9538 48.8972C41.3312 46.0431 41.6912 39.1354 41.9762 33.5844C42.1073 31.0291 42.2241 28.7972 42.3174 27.4471L42.3898 26.4174L43.4183 26.4618C60.9794 27.2154 78.3088 27.3383 94.4229 27.3559H95.4689L95.479 28.401C95.5991 39.7132 95.8202 47.6078 96.1097 50.6305L96.2233 51.8381L95.0116 51.7896C85.7946 51.4122 76.4144 51.1496 67.3455 50.8975C58.8834 50.6606 50.4233 50.424 41.9631 50.0955L40.8032 50.0511L40.9538 48.8972ZM124.888 187.414H123.829C83.8977 187.389 47.8558 186.959 11.1624 181.919L10.2093 181.788L10.2496 180.825C11.9987 139.872 11.1444 99.0196 11.1465 53.693C11.1465 52.5685 10.8655 51.5758 10.3082 50.7461L10.1302 50.4794L11.1302 38.572L12.1102 38.4995C18.6209 38.0186 25.0836 37.9299 29.9824 37.9071L31.1896 37.901L31.039 39.1008C30.9925 39.473 30.9335 42.266 30.8867 44.5094C30.8101 48.1896 30.7678 49.9717 30.7067 50.4098C30.5756 51.3857 30.6119 52.3494 30.8166 53.27L30.861 53.478L30.8228 53.6902C30.5052 55.436 30.9416 57.3142 31.9595 58.591C32.828 59.683 34.0787 60.2965 35.5758 60.3649C46.2191 60.8515 57.0516 61.1402 67.5279 61.417C78.0132 61.6943 88.8551 61.9825 99.5171 62.4715L99.794 62.478C103.009 62.478 103.898 59.9102 104.134 58.8052L104.214 58.4155L104.532 58.1757C105.971 57.1004 106.72 55.6099 106.538 54.1877C106.439 53.4044 106.362 50.5055 106.267 46.4967C106.211 44.1523 106.152 41.729 106.104 41.148L106.005 39.9986H124.885V187.413L124.888 187.414Z" fill="black"/>
<path d="M107.5 81.5L87.5 78.25L68 81.5L52.2169 76L38.982 78.25L28.7169 76.375" stroke="black" stroke-width="7" stroke-linecap="round"/>
<path d="M107.783 109.5L87.7831 106.25L68.2831 109.5L52.5 104L39.265 106.25L29 104.375" stroke="black" stroke-width="7" stroke-linecap="round"/>
<path d="M107.783 137.5L87.7831 134.25L68.2831 137.5L52.5 132L39.265 134.25L29 132.375" stroke="black" stroke-width="7" stroke-linecap="round"/>
<path d="M107.783 165.5L87.7831 162.25L68.2831 165.5L52.5 160L39.265 162.25L29 160.375" stroke="black" stroke-width="7" stroke-linecap="round"/>
</svg>
