<svg width="60" height="58" viewBox="0 0 60 58" fill="none" xmlns="http://www.w3.org/2000/svg">
<g clip-path="url(#clip0_2_41)">
<path d="M29.4986 39.3774C30.2186 39.3774 30.937 39.3256 31.6329 39.2232C34.9666 38.734 38.075 36.7646 39.9493 33.9542C41.5475 31.5552 42.0602 28.7857 41.3905 26.1539C40.2072 21.5034 35.9002 18.499 30.4164 18.499C29.1474 18.499 27.8918 18.6635 26.6844 18.9892C26.5211 19.0016 26.3681 19.0324 26.2176 19.0842C25.8812 19.201 25.537 19.3356 25.1792 19.491C24.6802 19.6911 24.2135 19.9121 23.7918 20.1461C23.68 20.208 23.574 20.2823 23.4697 20.3709C19.5293 22.7694 17.6231 26.6886 18.2391 31.133C19.0287 36.8279 24.4629 39.3774 29.4986 39.3774ZM25.7065 23.3194C27.1373 22.5525 28.7509 22.1475 30.3733 22.1475C33.3633 22.1475 36.9329 23.6188 37.9827 27.7485C38.3436 29.1655 38.0645 30.5234 37.1542 31.7855C35.4637 34.1295 31.9624 35.5823 29.5266 35.7584C29.2795 35.7759 29.0372 35.7845 28.802 35.7845C24.8967 35.7845 22.8706 33.3849 22.2765 31.1395C21.605 28.6003 22.4093 25.1946 25.7065 23.3194Z" fill="black"/>
<path d="M57.5576 21.1282C57.0701 19.6274 56.582 18.1268 56.1183 16.6187C56.0605 16.4304 55.9758 16.2519 55.8618 16.0776L55.8612 16.0751C55.657 15.219 55.0166 14.6271 54.1751 14.5032C54.0489 14.4466 53.9191 14.4066 53.7876 14.3842C52.0021 14.0679 50.2589 13.6715 48.3443 13.2249C48.2962 11.6574 48.245 10.0914 48.1876 8.52311C48.1828 8.39519 48.162 8.26751 48.1254 8.13311C48.0627 7.6734 47.8042 7.27692 47.393 7.01316C44.5539 5.1911 41.5711 3.78544 38.5287 2.83577C38.1624 2.72033 37.7914 2.73341 37.4574 2.86817C37.1814 2.92817 36.9303 3.05861 36.7099 3.25624C36.1767 3.73672 35.6489 4.22211 35.1273 4.71327C34.1803 3.57652 33.2005 2.37701 32.2803 1.14799C32.1999 1.04263 32.1067 0.945669 32.0013 0.85975C31.5156 0.167478 30.6882 -0.141759 29.8403 0.0615193C29.8403 0.0615193 29.8373 0.0621194 29.8354 0.0628394C29.6485 0.0405196 29.4509 0.0411196 29.2377 0.0774792C27.682 0.342556 26.1226 0.583873 24.5633 0.824231C21.9727 1.22419 19.294 1.63794 16.6719 2.1639C15.7926 2.33993 15.1899 2.96645 15.0684 3.81616C14.974 3.99472 14.9085 4.17927 14.8679 4.37703L14.725 5.07602C14.4629 6.35437 14.1927 7.67124 13.985 8.99266C12.0999 8.90278 10.1463 8.75614 8.0322 8.54591C7.15993 8.45543 6.50666 8.99842 6.36626 9.81429C6.35318 9.84141 6.33998 9.86937 6.32822 9.89925C5.11708 12.9357 3.64001 15.7477 2.35615 18.099C2.02159 18.7099 2.09023 19.4042 2.52883 19.9328C2.58066 20.0334 2.6385 20.1251 2.70558 20.2092C3.49805 21.2113 4.31572 22.2853 5.19688 23.479C4.04405 24.2971 2.9313 25.1778 1.85131 26.034L1.24532 26.5133C1.08692 26.6388 0.952282 26.7811 0.835523 26.9439C0.131731 27.4356 -0.156146 28.2566 0.0824119 29.1204C0.795684 31.6992 1.63351 34.2779 2.44399 36.772C2.93142 38.2716 3.41874 39.7712 3.88301 41.2782C3.94109 41.4677 4.02533 41.645 4.13957 41.8187L4.14017 41.8212C4.34369 42.678 4.98448 43.2709 5.82687 43.3934C5.95155 43.4494 6.08067 43.489 6.2135 43.5128C7.87825 43.8084 9.55247 44.1831 11.2578 44.5798C11.2172 45.1435 11.1774 45.7083 11.138 46.2715C11.0481 47.5498 10.9589 48.8289 10.8505 50.106C10.7937 50.7721 11.1006 51.3328 11.6755 51.6167C11.7148 51.6446 11.7553 51.6702 11.7964 51.6922C14.5157 53.1405 17.3092 54.2722 20.0992 55.0527C20.2082 55.0826 20.3201 55.1028 20.4327 55.1113C20.7873 55.1673 21.1615 55.085 21.4985 54.8682C22.3939 54.2881 23.2857 53.7025 24.1766 53.1175L24.5921 52.8439C25.6735 54.1394 26.7255 55.4197 27.7191 56.7467C27.799 56.8528 27.8931 56.9503 27.9997 57.0374C28.3848 57.5865 28.9744 57.8997 29.6352 57.8997C29.8079 57.8997 29.9858 57.8783 30.1614 57.8357L30.1651 57.8345C30.3528 57.8571 30.5502 57.8565 30.7642 57.8199C32.3198 57.5548 33.8791 57.3135 35.4385 57.0734C38.0295 56.6725 40.7081 56.2587 43.3302 55.7335C44.2088 55.5573 44.8122 54.9303 44.9334 54.081C45.0278 53.9024 45.093 53.7178 45.1332 53.5203L45.2763 52.8179C45.5256 51.6022 45.7828 50.3504 45.9862 49.0954C47.7789 49.3165 49.4905 49.3617 51.1255 49.2325C51.3698 49.213 51.6001 49.1442 51.8117 49.0284C52.0237 48.934 52.2126 48.7877 52.3741 48.5958C54.2631 46.3358 56.5903 43.2684 57.8223 39.5713C57.9442 39.2057 57.9387 38.8389 57.809 38.5032C57.7473 38.2156 57.6085 37.9554 57.3939 37.7305C56.3593 36.6386 55.5056 35.5522 54.7969 34.4236C55.954 33.6034 57.0703 32.7193 58.1543 31.8607L58.754 31.386C58.9124 31.2605 59.0476 31.1179 59.1646 30.954C59.8678 30.4622 60.1562 29.6414 59.9177 28.7783C59.206 26.1987 58.3681 23.6211 57.5576 21.1282ZM14.5363 42.0635C14.372 41.331 13.8374 40.81 13.0568 40.6278C11.2796 40.2121 9.53627 39.8118 7.78045 39.4871C7.39225 38.2458 6.9923 37.0083 6.59258 35.7706C5.90799 33.6549 5.2024 31.4717 4.57192 29.3005L4.84888 29.0792C5.93715 28.2127 7.06238 27.3167 8.23296 26.5416C9.03851 26.0087 9.38159 25.0923 9.14267 24.163C9.23315 23.7657 9.14027 23.3456 8.87496 22.9799C7.82689 21.53 6.76418 20.1119 5.71263 18.7615C7.07426 16.2217 8.1348 14.0292 9.01895 11.9246C11.0624 12.1111 12.9526 12.2354 14.7795 12.3045C15.0842 12.4617 15.4336 12.544 15.801 12.544C16.7699 12.544 17.8837 11.936 18.0417 10.6023C18.2058 9.21214 18.4978 7.80755 18.7805 6.44989L18.8549 6.09097C21.0829 5.6735 23.3568 5.31914 25.5596 4.97583C26.8386 4.77627 28.117 4.57671 29.3945 4.36491C30.477 5.78726 31.6195 7.1622 32.7908 8.56127C33.1881 9.03466 33.7158 9.29578 34.277 9.29578C34.8139 9.29578 35.3597 9.05422 35.7412 8.66543C35.7802 8.63435 35.8192 8.60182 35.8552 8.56487C36.6675 7.73495 37.5358 6.93264 38.3151 6.22501C40.5618 6.9912 42.7883 8.04383 44.9442 9.35794C45.015 11.3286 45.0856 13.2982 45.1386 15.2702C45.1532 15.7993 45.3939 16.261 45.8053 16.5593C46.0771 16.914 46.4677 17.1586 46.9448 17.27C48.7204 17.6856 50.4624 18.0857 52.2211 18.4114C52.6075 19.6481 53.0059 20.8811 53.4044 22.114C54.09 24.2337 54.798 26.4219 55.4293 28.5985L55.1448 28.8242C54.0583 29.6898 52.9352 30.5838 51.7684 31.3575C51.1651 31.7567 50.811 32.3838 50.7879 33.0876C50.7045 33.4465 50.7471 33.8169 50.9116 34.1649C51.7573 35.9412 52.9066 37.6339 54.4207 39.3292C53.5938 41.4631 52.3038 43.5446 50.2876 45.9985C48.6758 46.0691 47.044 45.9686 45.3933 45.7011C45.0526 45.4792 44.6328 45.358 44.1928 45.358C43.2276 45.358 42.1162 45.965 41.9597 47.2964C41.7964 48.6844 41.5038 50.0885 41.2211 51.4447L41.1468 51.8072C38.919 52.2241 36.6473 52.5787 34.4451 52.9218C33.1654 53.1216 31.8846 53.3215 30.6068 53.5335C29.5229 52.1095 28.3812 50.7355 27.2106 49.3375C27.054 49.15 26.8691 48.9927 26.6613 48.8697C26.154 48.4309 25.4417 48.3852 24.8518 48.7661C24.0088 49.3115 23.1697 49.863 22.3303 50.415C21.6734 50.8464 21.0163 51.2784 20.3573 51.7068C18.2584 51.0768 16.1894 50.2498 14.1989 49.245C14.2669 48.3627 14.3281 47.4797 14.389 46.5962C14.4753 45.35 14.5616 44.1039 14.6681 42.8596C14.6917 42.5751 14.6473 42.3084 14.5363 42.0635Z" fill="black"/>
</g>
<defs>
<clipPath id="clip0_2_41">
<rect width="60" height="58" fill="white"/>
</clipPath>
</defs>
</svg>
