<svg width="59" height="57" viewBox="0 0 59 57" fill="none" xmlns="http://www.w3.org/2000/svg">
<path d="M5.89389 20.6748C6.35497 21.105 6.79995 21.5489 7.23948 21.9982C7.9912 17.9364 9.63361 14.0527 12.6217 10.5884C20.6988 1.22296 35.272 -2.54074 45.9047 4.5988C55.3494 10.9393 60.5416 22.938 58.5938 33.976C56.4279 46.2519 46.3617 57.6102 32.3357 55.9598C24.6966 55.0617 17.8263 51.2924 13.0219 45.8315C12.9236 45.7441 12.8362 45.6483 12.7496 45.55C12.6439 45.4295 12.5461 45.3047 12.46 45.1689C12.2683 44.8652 12.12 44.5321 12.0493 44.1652L11.9897 43.859C11.6676 42.1866 12.8646 40.5084 14.6206 40.1697C15.6515 39.9704 16.6669 40.2815 17.4015 40.903C17.6935 41.1496 17.9338 41.4458 18.1169 41.7814C18.1575 41.857 18.208 41.9265 18.2423 42.0059C18.2571 41.9979 18.2743 41.9899 18.2891 41.9813C23.04 47.4225 30.2197 50.9889 37.6755 49.609C49.9997 47.3259 54.4058 33.145 51.4665 22.8925C48.9293 14.0416 40.4877 5.10831 29.9139 7.33345C23.6026 8.66186 17.1349 13.0974 14.7664 19.0108C14.5193 19.6279 14.3078 20.2476 14.1246 20.8709C14.9871 20.1517 15.8936 19.4767 16.8414 18.8546C18.326 17.881 20.1916 17.7199 21.4616 19.1055C22.52 20.2599 22.6011 22.5514 21.1155 23.5257C19.1262 24.8308 17.3941 26.319 15.8869 28.0075C14.9754 29.0286 14.1487 30.1256 13.4036 31.3059C13.2407 31.5647 13.0741 31.8203 12.9186 32.0871C12.1644 33.3804 10.9742 33.7393 9.86421 33.5064C8.97111 33.4997 8.10015 33.1808 7.57757 32.4726C7.21975 31.9888 6.85091 31.5149 6.4834 31.0398C6.08381 30.5234 5.67382 30.0163 5.26019 29.5129C3.91338 27.8779 2.49226 26.3048 0.927197 24.8455C-2.07557 22.0424 2.92077 17.9013 5.89389 20.6748Z" fill="black"/>
</svg>
