<svg width="281" height="128" viewBox="0 0 281 128" fill="none" xmlns="http://www.w3.org/2000/svg">
<path d="M8.54749 119.467C10.1062 98.1333 26.4722 61.44 39.3312 44.8L141.034 119.467H8.54749Z" fill="#91CE9D"/>
<path d="M41.6692 47.0202C51.2311 24.8257 91.7737 6.39999 97.1283 6.39999L139.966 119.467L41.6692 47.0202Z" fill="#C5EA97"/>
<path d="M180 9.16872C134.433 2.57658 133.288 5.08809 97 7.97116L140.237 120L180 9.16872Z" fill="#F5D779"/>
<path d="M239.331 48.9032C225.817 30.3338 211.906 22.0808 180.904 6.39999L139.966 119.467L239.331 48.9032Z" fill="#F5A25A"/>
<path d="M273.521 119.467C270.771 104.918 262.915 76.2481 238.168 45.8667L139.966 119.467H273.521Z" fill="#F67982"/>
<path d="M15.4478 81.6671C8.50884 97.9253 7.038 112.013 7.03796 121.574H55.0938C68.0422 122.283 96.0213 123.616 104.351 123.283C112.681 122.95 139.439 123.144 153.321 123.283C167.326 123.283 198.196 121.574 205.141 121.574C212.086 121.574 248.518 123.283 252.523 123.283L274.148 121.574C274.148 114.591 267.074 93.9994 262.535 84.5771C260.292 74.9328 240.776 51.4595 231.298 40.9285C220.085 27.6261 187.279 9.66216 180.5 8.50001C145.5 2.50001 130.5 2.5 103.468 7.84981C74.4035 13.6019 59.8994 26.7019 44.6817 38.4801C38.4979 42.4539 24.2137 63.3553 17.1375 77.9717C16.515 79.2574 15.9483 80.4945 15.4478 81.6671Z" stroke="#262425" stroke-width="7"/>
<path d="M17.0951 82.1333C17.2474 84.1602 19.4579 85.0289 21.7473 86.0148C23.2011 86.6409 24.9135 86.9639 26.4662 87.4667C27.6388 87.8463 28.5653 88.5333 29.9164 88.5333" stroke="#262425" stroke-width="7" stroke-linecap="round"/>
<path d="M65.7328 27.4909C67.2515 30.7509 69.3743 33.5988 71.2191 36.5687" stroke="#262425" stroke-width="7" stroke-linecap="round"/>
<path d="M136.831 5.00189C136.874 6.89577 136.991 12.1174 137.044 14.4731C137.088 16.4082 137.003 17.1408 137.044 19" stroke="#262425" stroke-width="7" stroke-linecap="round"/>
<path d="M212.327 28.1909C210.64 28.6438 209.548 31.7626 208.442 33.0978C207.497 34.2376 206.72 35.9907 205.927 37.2687" stroke="#262425" stroke-width="7" stroke-linecap="round"/>
<path d="M249.127 89.42C250.322 88.2654 252.019 87.5176 253.47 86.7757C255.265 85.8583 257.381 84.5131 259.414 84.5131" stroke="#262425" stroke-width="7" stroke-linecap="round"/>
</svg>
