<svg width="78" height="65" viewBox="0 0 78 65" fill="none" xmlns="http://www.w3.org/2000/svg">
<path d="M18.5 61C19.4393 63 43.5 62.3091 43.5 62.3091M18.5 61C17.5607 59 17.5 43.5 17.5 43.5L17 24H41.5L63.5 25C64 30.1667 64.5 39 64.5 46.5C64.5 52.0394 63.5 60.5564 63.5 62.3091C63.5 62.3091 48.7159 62.3091 43.5 62.3091M18.5 61L43.5 62.3091" stroke="black" stroke-width="5" stroke-linecap="round" stroke-linejoin="round"/>
<path d="M75.5 22L57.5 3H40C33.0682 3 20 5 20 5L3 23.5C11.5 23 30.3 22 37.5 22H75.5Z" stroke="black" stroke-width="5" stroke-linecap="round" stroke-linejoin="round"/>
<path d="M31.4444 52.638C30.4444 58.638 31.4444 59.6192 31.4444 59.6192L49.4444 59.6192C49.4444 59.6192 49.9445 54.638 48.4445 49.6379C46.9445 44.6379 45.3833 40.1482 39.4444 41.138C33.4444 42.138 32.4444 46.638 31.4444 52.638Z" stroke="black" stroke-width="5" stroke-linecap="round" stroke-linejoin="round"/>
<path d="M37.5 50C37.3333 51.1667 37.2 53.4 38 53C38.8 52.6 38 49 37.5 50Z" fill="black" stroke="black" stroke-linecap="round" stroke-linejoin="round"/>
</svg>
