<svg width="84" height="173" viewBox="0 0 84 173" fill="none" xmlns="http://www.w3.org/2000/svg">
<path d="M26.0045 162.161C23.3321 162.857 21.7294 165.587 22.4248 168.259C23.1201 170.932 25.8503 172.534 28.5227 171.839L26.0045 162.161ZM1.46444 33.4645C-0.488167 35.4171 -0.488144 38.583 1.46449 40.5356L33.2845 72.3551C35.2372 74.3077 38.403 74.3077 40.3556 72.3551C42.3082 70.4024 42.3082 67.2366 40.3555 65.284L12.0711 36.9999L40.3551 8.71547C42.3077 6.76283 42.3077 3.59701 40.3551 1.6444C38.4024 -0.308205 35.2366 -0.308182 33.284 1.64445L1.46444 33.4645ZM28.5227 171.839C40.9083 168.616 49.9932 162.851 56.2204 155.577C62.4332 148.319 65.5807 139.819 66.5223 131.46C67.4603 123.132 66.2232 114.863 63.5865 107.863C60.9808 100.945 56.8268 94.8089 51.5174 91.2477L45.947 99.5525C48.9865 101.591 52.0881 105.705 54.2283 111.387C56.3376 116.987 57.3367 123.668 56.5851 130.34C55.837 136.981 53.3689 143.531 48.6238 149.073C43.8931 154.599 36.6778 159.384 26.0045 162.161L28.5227 171.839ZM51.5174 91.2477C46.2838 87.7372 40.7645 86.888 35.9853 88.5898C31.3104 90.2544 28.0133 94.1487 26.8839 98.6943C25.7331 103.325 26.8498 108.488 30.5722 112.673C34.2401 116.797 40.1087 119.644 48.0403 120.752L49.4242 110.848C43.0435 109.956 39.6687 107.853 38.044 106.027C36.4738 104.262 36.2486 102.475 36.5888 101.106C36.9501 99.6514 37.9765 98.4958 39.3397 98.0104C40.5985 97.5621 42.8318 97.463 45.947 99.5525L51.5174 91.2477ZM48.0403 120.752C56.0797 121.875 63.1345 120.687 68.845 117.45C74.5626 114.208 78.5476 109.127 80.7908 103.159C85.2286 91.3532 82.93 76.1091 74.4208 62.7183L65.9807 68.0816C73.2307 79.4909 74.5103 91.4468 71.4302 99.6407C69.9144 103.673 67.3665 106.792 63.9128 108.751C60.452 110.713 55.6972 111.725 49.4242 110.848L48.0403 120.752ZM74.4208 62.7183C65.7447 49.065 52.7961 41.3951 39.9696 37.1528C27.1761 32.9214 14.2279 31.9999 4.99996 32L5.00004 42C13.6625 41.9999 25.4351 42.8784 36.8295 46.647C48.191 50.4047 58.8975 56.9349 65.9807 68.0816L74.4208 62.7183Z" fill="black"/>
</svg>
