<svg width="344" height="146" viewBox="0 0 344 146" fill="none" xmlns="http://www.w3.org/2000/svg">
<path d="M2.5 142C4.5 117 25.5 74 42 54.5L172.5 142H2.5Z" fill="#05F200"/>
<path d="M43 55C55.5 28.5 108.5 6.5 115.5 6.5L171.5 141.5L43 55Z" fill="#B3F200"/>
<path d="M223 7.45378C163.982 -0.548911 162.5 2.5 115.5 5.99997L171.5 142L223 7.45378Z" fill="#F1F525"/>
<path d="M296.5 57C279.5 34.5 262 24.5 223 5.5L171.5 142.5L296.5 57Z" fill="#F29100"/>
<path d="M342 142C338.5 125 328.5 91.5 297 56L172 142H342Z" fill="#F20F00"/>
<path d="M16.5001 92.9449C7.83646 112.5 2.00004 129.445 2 140.945L66 140.945C82.1667 141.797 117.1 143.4 127.5 143C137.9 142.6 175.167 142.833 192.5 143C210 143.685 246.9 144.644 254.5 143C264 140.945 327 143 332 143L342 140.945C342 132.545 330.667 107.778 325 96.4449C322.2 84.8449 297.833 56.6115 286 43.9449C272 27.9449 232.5 8.99998 222 5.49998C211.5 1.99998 161.5 1.44484 131.5 2.94485C96 4.71986 72 26.8333 53 41C45.2792 45.7796 27.4447 70.9196 18.6097 88.5C17.8325 90.0465 17.125 91.5344 16.5001 92.9449Z" stroke="black" stroke-width="4"/>
<path d="M19.9194 86.8961C20.0258 89.0232 21.5697 89.9348 23.1688 90.9695C24.1842 91.6265 25.3803 91.9655 26.4648 92.4931C27.2838 92.8915 27.9309 93.6125 28.8746 93.6125" stroke="black" stroke-width="3" stroke-linecap="round"/>
<path d="M73.9301 24.4901C75.7893 28.2086 78.388 31.4569 80.6464 34.8445" stroke="black" stroke-width="3" stroke-linecap="round"/>
<path d="M167.119 3.78137C168.096 5.12437 167.399 8.82715 167.399 10.4977C167.399 11.8699 167.415 13.0972 167.679 14.4156" stroke="black" stroke-width="3" stroke-linecap="round"/>
<path d="M262.547 27.2886C260.481 27.8052 259.144 31.3626 257.79 32.8855C256.634 34.1856 255.683 36.1852 254.712 37.6429" stroke="black" stroke-width="3" stroke-linecap="round"/>
<path d="M311.521 101.728C312.984 100.411 315.061 99.5581 316.838 98.7119C319.035 97.6654 321.626 96.1311 324.114 96.1311" stroke="black" stroke-width="3" stroke-linecap="round"/>
</svg>
